<svg xmlns="http://www.w3.org/2000/svg" viewBox="0 0 1200 630">
  <defs><linearGradient id="bg" x1="0" y1="0" x2="1" y2="1"><stop offset="0" stop-color="#fbfafc"/><stop offset="1" stop-color="#f0edf7"/></linearGradient></defs>
  <rect width="1200" height="630" rx="48" fill="url(#bg)"/>
  <circle cx="1040" cy="110" r="210" fill="#6f4fd6" opacity=".06"/>
  <circle cx="1090" cy="570" r="290" fill="#d78763" opacity=".06"/>
  <g transform="translate(92 118)"><rect width="172" height="172" rx="42" fill="#fff" stroke="#ded9e8" stroke-width="3"/><g transform="translate(35 36) scale(.2)"><rect x="88" y="194" width="336" height="224" rx="42" fill="none" stroke="#24202e" stroke-width="24"/><path d="M190 194v-42c0-32 26-58 58-58h16c32 0 58 26 58 58v42" fill="none" stroke="#24202e" stroke-width="24" stroke-linecap="round"/><path d="M88 274h336" fill="none" stroke="#24202e" stroke-width="24"/><path d="M222 274v38c0 10 8 18 18 18h32c10 0 18-8 18-18v-38" fill="none" stroke="#6f4fd6" stroke-width="22" stroke-linejoin="round"/></g></g>
  <text x="310" y="182" font-family="Arial, Helvetica, sans-serif" font-size="24" font-weight="700" letter-spacing="3" fill="#6f4fd6">DALLAGLIO</text>
  <text x="310" y="249" font-family="Arial, Helvetica, sans-serif" font-size="50" font-weight="700" fill="#24202e">Portable Tools and Equipment</text>
  <text x="310" y="310" font-family="Arial, Helvetica, sans-serif" font-size="50" font-weight="700" fill="#24202e">E-System</text>
  <text x="310" y="374" font-family="Arial, Helvetica, sans-serif" font-size="25" fill="#635e6d">Searchable registers · clear custody · permanent history</text>
  <path d="M310 428h680" stroke="#d9d4e1" stroke-width="2"/>
  <g font-family="Arial, Helvetica, sans-serif" font-size="20" fill="#514b5c"><text x="310" y="477">Find equipment</text><text x="520" y="477">Issue and return</text><text x="765" y="477">Track responsibility</text></g>
  <g fill="#6f4fd6"><circle cx="290" cy="470" r="5"/><circle cx="500" cy="470" r="5"/><circle cx="745" cy="470" r="5"/></g>
</svg>
